<?xml version="1.0" encoding="UTF-8"?>
<!DOCTYPE svg PUBLIC "-//W3C//DTD SVG 1.1//EN" "http://www.w3.org/Graphics/SVG/1.1/DTD/svg11.dtd">
<!-- Creator: CorelDRAW X5 -->
<svg xmlns="http://www.w3.org/2000/svg" xml:space="preserve" width="8in" height="5in" style="shape-rendering:geometricPrecision; text-rendering:geometricPrecision; image-rendering:optimizeQuality; fill-rule:evenodd; clip-rule:evenodd"
viewBox="0 0 8 5"
 xmlns:xlink="http://www.w3.org/1999/xlink">
 <defs>
  <style type="text/css">
   <![CDATA[
    .fil1 {fill:#FEFEFE}
    .fil2 {fill:#FF0101}
    .fil0 {fill:black;fill-rule:nonzero}
   ]]>
  </style>
 </defs>
 <g id="Layer_x0020_1">
  <metadata id="CorelCorpID_0Corel-Layer"/>
  <g id="_482392888">
   <path id="_482401192" class="fil0" d="M7.65567 3.55289c-0.0579843,0.212244 -0.177035,0.19124 -0.411772,0.161059 -0.238067,-0.0306063 -0.4945,-0.0590669 -0.749823,-0.0637598 -0.24785,-0.00456299 -0.47228,0.00361811 -0.685724,0.026622 -0.229008,0.024685 -0.463346,0.0537205 -0.691354,0.0984961 -0.227087,0.0445984 -0.46526,0.0978976 -0.688811,0.171201 -0.302421,0.0991654 -0.61378,0.224075 -0.908402,0.351508 -0.256953,0.120803 -0.517811,0.231476 -0.755047,0.370815 -0.400028,0.234878 -0.465016,0.201606 -0.644154,-0.239433 -0.180776,-0.445043 -0.203626,-0.718984 0.196118,-1.05723 0.0153583,-0.0129961 0.0316417,-0.0265591 0.0487047,-0.0405669 0.0355118,-0.190728 0.105724,-0.378488 0.194504,-0.564626 0.0606575,-0.127181 0.130142,-0.25389 0.203126,-0.380406 -0.138378,0.0682953 -0.282996,0.126386 -0.435331,0.171831 -0.0327756,0.00977953 -0.0659291,0.0189685 -0.0994567,0.0275591 0.0132953,0.204295 -0.0965591,0.36124 -0.278154,0.511681 0.0693504,0.00159843 0.140382,0.00621654 0.206843,0.016563 -0.315043,0.268657 -0.705654,0.33026 -0.894823,0.294047 0.0235039,0.0313071 0.137768,0.12939 0.161268,0.160693 -0.397862,-0.0137047 -0.676795,-0.196524 -0.858429,-0.548185 -0.00610236,0.0394567 -0.0247953,0.219972 -0.0304685,0.266831 -0.287409,-0.42315 -0.238965,-0.858043 -0.0776654,-1.15101 -0.0806732,0.0170236 -0.122098,0.0299331 -0.195,0.0548386 0.178248,-0.321717 0.633909,-0.619382 1.0437,-0.607256 -0.024563,-0.022815 -0.13989,-0.12611 -0.164449,-0.148921 0.28772,-0.0137953 0.636768,0.184882 0.825378,0.415492 0.129193,-0.107209 0.255776,-0.216461 0.380311,-0.327303 0.104583,-0.0930945 0.21461,-0.198535 0.329835,-0.308949 0.286256,-0.274303 0.604016,-0.578799 0.918299,-0.776496 0.523547,-0.329354 0.861583,-0.331791 1.39908,-0.0240079 0.770598,0.441197 1.32245,1.01565 1.93785,1.63483 0.0701417,0.00135039 0.142319,0.00501575 0.220811,0.0102598 0.299724,0.0199134 0.49172,0.0189606 0.547031,0.375031 0.0579961,0.373331 0.0559488,0.752689 -0.0439961,1.1188z"/>
   <path id="_482393632" class="fil1" d="M1.86869 1.93106c-0.11376,-0.15122 -0.231992,-0.248587 -0.40615,-0.332744 0.019815,0.0342126 0.0235787,0.0462402 0.0460591,0.1 -0.328091,-0.0856535 -0.799193,0.100283 -1.0337,0.337492 0.0280945,-0.0157047 0.162543,-0.0428465 0.192106,-0.0512953 -0.209492,0.21378 -0.270516,0.734697 -0.171602,0.952925 0.0160433,-0.0692913 0.0274094,-0.131772 0.0569055,-0.217768 0.111291,0.280717 0.343654,0.578657 0.630516,0.697602 -0.0341929,-0.0469055 -0.042315,-0.0680551 -0.0652323,-0.113626 0.26087,0.0303504 0.495256,-0.00147244 0.73085,-0.113776l-0.17128 -0.0535472c0.176622,-0.0809449 0.425886,-0.309535 0.428469,-0.522039 -0.164634,0.0339016 -0.338394,0.0533071 -0.522906,0.0555906 -0.432307,0.00531102 -0.47089,-0.164843 -0.138815,-0.409366 0.143732,-0.105854 0.285201,-0.215937 0.42478,-0.329449zm3.2844 0.253898c-0.771193,0.274402 -1.23074,0.455594 -1.95416,0.893681 0.0405354,-0.130583 0.0797126,-0.183232 0.159425,-0.298622 -0.344953,0.178957 -0.692087,0.462831 -1.00628,0.700638 -0.35213,0.266516 -0.275476,0.557744 -0.133098,0.908224 0.159039,0.391524 0.19113,0.373449 0.517256,0.184358 0.235268,-0.136386 0.480772,-0.271094 0.733114,-0.392087 0.0348031,-0.0150591 0.0698701,-0.0297756 0.105134,-0.0441969 0.582173,-0.377181 1.78013,-0.875909 2.41678,-0.926799 0.103445,-0.00818504 0.0987717,0.0370787 0.0208465,0.0838701 -0.0748268,0.0449055 -0.162772,0.0706181 -0.246504,0.107744 -0.031685,0.0140472 -0.031689,-0.00366929 -0.00437008,-0.0160433 0.0788701,-0.0357205 0.182059,-0.0897008 0.251035,-0.131969 -0.576646,0.0671772 -1.57155,0.439291 -2.18057,0.784012 0.188823,-0.0690236 0.379508,-0.131618 0.56389,-0.192075 0.229189,-0.0751535 0.455173,-0.121736 0.686669,-0.167201 0.230594,-0.0452756 0.46989,-0.0862362 0.703488,-0.111413 0.217626,-0.0234567 0.457421,-0.0232323 0.711189,-0.018563 0.260016,0.00478346 0.520417,0.00790157 0.762949,0.0390787 0.169787,0.0218465 0.230114,0.0384449 0.277705,-0.106535 0.0889606,-0.271197 0.0800118,-0.745622 0.0362283,-1.02749 -0.0406693,-0.261807 -0.211713,-0.260035 -0.428028,-0.272795 -0.300445,-0.0178819 -0.708004,0.0048189 -0.999827,0.0639567 0.0342165,-0.0514961 0.0967677,-0.118783 0.162283,-0.153331 -0.162693,0.0139094 -0.341402,0.0259134 -0.499756,0.0602874 -0.233354,0.0305945 -0.632803,0.165732 -0.858811,0.257594 0.0845591,-0.114728 0.180059,-0.205161 0.203409,-0.224327z"/>
   <path id="_482412376" class="fil2" d="M4.33098 0.92698c0.028937,-0.0163031 0.0373307,0.0118543 0.0131535,0.0304173 -0.393449,0.302693 -0.808087,0.519067 -1.09144,0.953654 -0.0174134,0.0267126 -0.0337126,0.0204685 -0.0156811,-0.00723622 0.283823,-0.43587 0.644091,-0.723228 1.09397,-0.976835zm-0.6155 0.044748c-0.222748,0.443902 -0.479228,0.853555 -0.726657,1.28258l-0.061752 0.104299c-0.090685,0.154185 -0.177961,0.308508 -0.251791,0.463307 -0.0607559,0.127374 -0.11226,0.254795 -0.148736,0.38226 0.335146,-0.256071 0.817909,-0.574445 1.11256,-0.630126 -0.0203622,0.0294764 -0.104083,0.131449 -0.124449,0.160921 0.498126,-0.303925 1.44471,-0.676157 2.0224,-0.71778 -0.0724331,0.0515472 -0.0802717,0.0587323 -0.158071,0.133988 0.11972,-0.0375591 0.278988,-0.0749449 0.401406,-0.101516 0.242634,-0.0526654 0.606059,-0.0558701 0.861563,-0.0608976 -0.0362165,0.0265512 -0.0513937,0.039122 -0.111925,0.0818031 0.0735157,-0.0094252 0.141654,-0.0155315 0.208055,-0.018937 -0.562866,-0.565417 -1.09493,-1.11482 -1.79397,-1.51954 -0.500484,-0.289701 -0.79187,-0.294102 -1.28129,0.0137677 -0.303224,0.190744 -0.61602,0.490484 -0.897815,0.760508 -0.11811,0.113181 -0.230898,0.22126 -0.333335,0.312449 -0.146366,0.130276 -0.29487,0.257846 -0.446157,0.381807 -0.150791,0.123547 -0.305854,0.244669 -0.466189,0.36276 -0.24011,0.176807 -0.22278,0.182626 0.0618976,0.17913 0.256386,-0.00317323 0.491484,-0.0412756 0.710031,-0.106469 0.173445,-0.0517402 0.336228,-0.120476 0.490772,-0.202299 0.037,-0.0195906 0.0735354,-0.0399331 0.10963,-0.0609764 0.155283,-0.19278 0.702047,-1.01609 0.781791,-1.20656 -0.0768346,0.0493504 -0.230811,0.227063 -0.297453,0.311594 -0.0170276,0.0215945 -0.0307835,0.0110827 -0.0142126,-0.0107205 0.0855433,-0.112547 0.159197,-0.221366 0.301858,-0.341335 0.0526969,-0.0443543 0.0840276,-0.0182244 0.0518425,0.0459724z"/>
  </g>
 </g>
</svg>
